# xmcd
#
# Track frame offsets:
#	150
#	17624
#	31771
#	45272
#	57342
#	71881
#	84419
#	96930
#	106949
#	121746
#	134713
#
# Disc length: 2026 seconds
#
# Revision: 0
# Processed by: cddbd v1.5.2PL0 Copyright (c) Steve Scherf et al.
# Submitted via: dBpowerAMP V4.0
#
DISCID=8a07e80b
DTITLE=1 A Chord - I'll Be Your Pillow
DYEAR=1998
DGENRE=Gospel
TTITLE0=I'll Be Your Pillow
TTITLE1=Heaven's Roadsigns
TTITLE2=Don't Cry For Me
TTITLE3=What Would I Do?
TTITLE4=It's Jesus I'm Living For
TTITLE5=You Gotta Make It
TTITLE6=Our Praise
TTITLE7=Every Step Of The Way
TTITLE8=Praise The Lamb
TTITLE9=The First Step
TTITLE10=Angels Stood At Attention
EXTD=
EXTT0=
EXTT1=
EXTT2=
EXTT3=
EXTT4=
EXTT5=
EXTT6=
EXTT7=
EXTT8=
EXTT9=
EXTT10=
PLAYORDER=
